<?xml version="1.0" encoding="UTF-8" standalone="no"?><svg xmlns="http://www.w3.org/2000/svg" xmlns:xlink="http://www.w3.org/1999/xlink" contentScriptType="application/ecmascript" contentStyleType="text/css" height="2146px" preserveAspectRatio="none" style="width:511px;height:2146px;" version="1.1" viewBox="0 0 511 2146" width="511px" zoomAndPan="magnify"><defs><filter height="300%" id="f136ryq0v49xp2" width="300%" x="-1" y="-1"><feGaussianBlur result="blurOut" stdDeviation="2.0"/><feColorMatrix in="blurOut" result="blurOut2" type="matrix" values="0 0 0 0 0 0 0 0 0 0 0 0 0 0 0 0 0 0 .4 0"/><feOffset dx="4.0" dy="4.0" in="blurOut2" result="blurOut3"/><feBlend in="SourceGraphic" in2="blurOut3" mode="normal"/></filter></defs><g><text fill="#000000" font-family="sans-serif" font-size="18" lengthAdjust="spacingAndGlyphs" textLength="225" x="147" y="17.4023">contract mgmt composite</text><!--class root_v1--><rect fill="#F1F1F1" filter="url(#f136ryq0v49xp2)" height="69.9102" id="root_v1" style="stroke: #000000; stroke-width: 1.5;" width="198" x="261" y="29.1992"/><ellipse cx="331.25" cy="45.1992" fill="#B00020" rx="11" ry="11" style="stroke: #000000; stroke-width: 1.0;"/><path d="M331.9487,45.8472 Q332.314,45.9219 332.5837,46.1917 Q332.8535,46.4614 333.2437,47.2417 L335.4849,51.6992 L332.7954,51.6992 L331.3013,48.5698 Q331.2349,48.437 331.127,48.2046 Q330.4712,46.8018 329.583,46.8018 L328.8027,46.8018 L328.8027,51.6992 L326.354,51.6992 L326.354,39.3062 L329.8901,39.3062 Q332.2808,39.3062 333.3225,40.1528 Q334.3643,40.9995 334.3643,42.9087 Q334.3643,44.187 333.7417,44.9424 Q333.1191,45.6978 331.9487,45.8472 Z M328.8027,41.3647 L328.8027,44.7432 L329.9565,44.7432 Q330.9609,44.7432 331.3967,44.3489 Q331.8325,43.9546 331.8325,43.0498 Q331.8325,42.145 331.4009,41.7549 Q330.9692,41.3647 329.9565,41.3647 Z "/><text fill="#000000" font-family="sans-serif" font-size="12" lengthAdjust="spacingAndGlyphs" textLength="41" x="355.75" y="49.7344">root.v1</text><line style="stroke: #000000; stroke-width: 1.5;" x1="262" x2="458" y1="61.1992" y2="61.1992"/><text fill="#000000" font-family="sans-serif" font-size="11" lengthAdjust="spacingAndGlyphs" textLength="186" x="267" y="92.7891">API entry point contract composite</text><line style="stroke: #000000; stroke-width: 1.0;" x1="262" x2="329" y1="75.6768" y2="75.6768"/><text fill="#000000" font-family="sans-serif" font-size="11" lengthAdjust="spacingAndGlyphs" textLength="62" x="329" y="79.334">Description</text><line style="stroke: #000000; stroke-width: 1.0;" x1="391" x2="458" y1="75.6768" y2="75.6768"/><!--class vertraege_v1--><rect fill="#F1F1F1" filter="url(#f136ryq0v49xp2)" height="401.7871" id="vertraege_v1" style="stroke: #000000; stroke-width: 1.5;" width="266" x="6" y="159.1992"/><ellipse cx="94.25" cy="175.1992" fill="#03A9F4" rx="11" ry="11" style="stroke: #000000; stroke-width: 1.0;"/><path d="M94.9487,175.8472 Q95.314,175.9219 95.5837,176.1917 Q95.8535,176.4614 96.2437,177.2417 L98.4849,181.6992 L95.7954,181.6992 L94.3013,178.5698 Q94.2349,178.437 94.127,178.2046 Q93.4712,176.8018 92.583,176.8018 L91.8027,176.8018 L91.8027,181.6992 L89.354,181.6992 L89.354,169.3062 L92.8901,169.3062 Q95.2808,169.3062 96.3225,170.1528 Q97.3643,170.9995 97.3643,172.9087 Q97.3643,174.187 96.7417,174.9424 Q96.1191,175.6978 94.9487,175.8472 Z M91.8027,171.3647 L91.8027,174.7432 L92.9565,174.7432 Q93.9609,174.7432 94.3967,174.3489 Q94.8325,173.9546 94.8325,173.0498 Q94.8325,172.145 94.4009,171.7549 Q93.9692,171.3647 92.9565,171.3647 Z "/><text fill="#000000" font-family="sans-serif" font-size="12" lengthAdjust="spacingAndGlyphs" textLength="73" x="118.75" y="179.7344">vertraege.v1</text><line style="stroke: #000000; stroke-width: 1.5;" x1="7" x2="271" y1="191.1992" y2="191.1992"/><ellipse cx="17" cy="220.1318" fill="none" rx="3" ry="3" style="stroke: #038048; stroke-width: 1.0;"/><text fill="#000000" font-family="sans-serif" font-size="11" lengthAdjust="spacingAndGlyphs" textLength="16" x="26" y="222.7891">list</text><ellipse cx="17" cy="233.0869" fill="none" rx="3" ry="3" style="stroke: #038048; stroke-width: 1.0;"/><text fill="#000000" font-family="sans-serif" font-size="11" lengthAdjust="spacingAndGlyphs" textLength="17" x="26" y="235.7441">get</text><ellipse cx="17" cy="246.042" fill="none" rx="3" ry="3" style="stroke: #038048; stroke-width: 1.0;"/><text fill="#000000" font-family="sans-serif" font-size="11" lengthAdjust="spacingAndGlyphs" textLength="37" x="26" y="248.6992">update</text><ellipse cx="17" cy="258.9971" fill="none" rx="3" ry="3" style="stroke: #038048; stroke-width: 1.0;"/><text fill="#000000" font-family="sans-serif" font-size="11" lengthAdjust="spacingAndGlyphs" textLength="32" x="26" y="261.6543">delete</text><ellipse cx="17" cy="271.9521" fill="none" rx="3" ry="3" style="stroke: #038048; stroke-width: 1.0;"/><text fill="#000000" font-family="sans-serif" font-size="11" lengthAdjust="spacingAndGlyphs" textLength="54" x="26" y="274.6094">:freigeben</text><text fill="#000000" font-family="sans-serif" font-size="11" lengthAdjust="spacingAndGlyphs" textLength="0" x="29" y="287.5645"/><line style="stroke: #000000; stroke-width: 1.0; stroke-dasharray: 1.0,2.0;" x1="7" x2="115.5" y1="205.6768" y2="205.6768"/><text fill="#000000" font-family="sans-serif" font-size="11" lengthAdjust="spacingAndGlyphs" textLength="47" x="115.5" y="209.334">methods</text><line style="stroke: #000000; stroke-width: 1.0; stroke-dasharray: 1.0,2.0;" x1="162.5" x2="271" y1="205.6768" y2="205.6768"/><rect fill="none" height="6" style="stroke: #C82930; stroke-width: 1.0;" width="6" x="14" y="311.8174"/><text fill="#000000" font-family="sans-serif" font-size="11" lengthAdjust="spacingAndGlyphs" textLength="108" x="26" y="317.4746">display_name string</text><ellipse cx="17" cy="327.7725" fill="none" rx="3" ry="3" style="stroke: #038048; stroke-width: 1.0;"/><text fill="#000000" font-family="sans-serif" font-size="11" lengthAdjust="spacingAndGlyphs" textLength="84" x="26" y="330.4297">vertragId string</text><ellipse cx="17" cy="340.7275" fill="none" rx="3" ry="3" style="stroke: #038048; stroke-width: 1.0;"/><text fill="#000000" font-family="sans-serif" font-size="11" lengthAdjust="spacingAndGlyphs" textLength="215" x="26" y="343.3848">fachlicheGueltigkeit FachlicheGueltigkeit</text><ellipse cx="17" cy="353.6826" fill="none" rx="3" ry="3" style="stroke: #038048; stroke-width: 1.0;"/><text fill="#000000" font-family="sans-serif" font-size="11" lengthAdjust="spacingAndGlyphs" textLength="90" x="26" y="356.3398">zustand Zustand</text><ellipse cx="17" cy="366.6377" fill="none" rx="3" ry="3" style="stroke: #038048; stroke-width: 1.0;"/><text fill="#000000" font-family="sans-serif" font-size="11" lengthAdjust="spacingAndGlyphs" textLength="240" x="26" y="369.2949">versicherungsnehmer Versicherungsnehmer</text><ellipse cx="17" cy="379.5928" fill="none" rx="3" ry="3" style="stroke: #038048; stroke-width: 1.0;"/><text fill="#000000" font-family="sans-serif" font-size="11" lengthAdjust="spacingAndGlyphs" textLength="101" x="26" y="382.25">hauptverfallTag int</text><ellipse cx="17" cy="392.5479" fill="none" rx="3" ry="3" style="stroke: #038048; stroke-width: 1.0;"/><text fill="#000000" font-family="sans-serif" font-size="11" lengthAdjust="spacingAndGlyphs" textLength="114" x="26" y="395.2051">hautpverfallMonat int</text><ellipse cx="17" cy="405.5029" fill="none" rx="3" ry="3" style="stroke: #038048; stroke-width: 1.0;"/><text fill="#000000" font-family="sans-serif" font-size="11" lengthAdjust="spacingAndGlyphs" textLength="171" x="26" y="408.1602">isHauptverfallUebersteuert bool</text><ellipse cx="17" cy="418.458" fill="none" rx="3" ry="3" style="stroke: #038048; stroke-width: 1.0;"/><text fill="#000000" font-family="sans-serif" font-size="11" lengthAdjust="spacingAndGlyphs" textLength="86" x="26" y="421.1152">zahlweise string</text><ellipse cx="17" cy="431.4131" fill="none" rx="3" ry="3" style="stroke: #038048; stroke-width: 1.0;"/><text fill="#000000" font-family="sans-serif" font-size="11" lengthAdjust="spacingAndGlyphs" textLength="140" x="26" y="434.0703">zusatzAttribute []Property</text><ellipse cx="17" cy="444.3682" fill="none" rx="3" ry="3" style="stroke: #038048; stroke-width: 1.0;"/><text fill="#000000" font-family="sans-serif" font-size="11" lengthAdjust="spacingAndGlyphs" textLength="87" x="26" y="447.0254">vertragNr string</text><ellipse cx="17" cy="457.3232" fill="none" rx="3" ry="3" style="stroke: #038048; stroke-width: 1.0;"/><text fill="#000000" font-family="sans-serif" font-size="11" lengthAdjust="spacingAndGlyphs" textLength="88" x="26" y="459.9805">produktId string</text><ellipse cx="17" cy="470.2783" fill="none" rx="3" ry="3" style="stroke: #038048; stroke-width: 1.0;"/><text fill="#000000" font-family="sans-serif" font-size="11" lengthAdjust="spacingAndGlyphs" textLength="94" x="26" y="472.9355">ablaufDatum date</text><ellipse cx="17" cy="483.2334" fill="none" rx="3" ry="3" style="stroke: #038048; stroke-width: 1.0;"/><text fill="#000000" font-family="sans-serif" font-size="11" lengthAdjust="spacingAndGlyphs" textLength="185" x="26" y="485.8906">naechsterKuendigungstermin date</text><ellipse cx="17" cy="496.1885" fill="none" rx="3" ry="3" style="stroke: #038048; stroke-width: 1.0;"/><text fill="#000000" font-family="sans-serif" font-size="11" lengthAdjust="spacingAndGlyphs" textLength="133" x="26" y="498.8457">geschaeftsbereich string</text><text fill="#000000" font-family="sans-serif" font-size="11" lengthAdjust="spacingAndGlyphs" textLength="0" x="29" y="511.8008"/><line style="stroke: #000000; stroke-width: 1.0;" x1="7" x2="124.5" y1="300.3623" y2="300.3623"/><text fill="#000000" font-family="sans-serif" font-size="11" lengthAdjust="spacingAndGlyphs" textLength="29" x="124.5" y="304.0195">fields</text><line style="stroke: #000000; stroke-width: 1.0;" x1="153.5" x2="271" y1="300.3623" y2="300.3623"/><text fill="#000000" font-family="sans-serif" font-size="11" lengthAdjust="spacingAndGlyphs" textLength="140" x="12" y="541.7109">contract head information</text><text fill="#000000" font-family="sans-serif" font-size="11" lengthAdjust="spacingAndGlyphs" textLength="61" x="12" y="554.666">entity {:cnt}</text><line style="stroke: #000000; stroke-width: 1.0;" x1="7" x2="108" y1="524.5986" y2="524.5986"/><text fill="#000000" font-family="sans-serif" font-size="11" lengthAdjust="spacingAndGlyphs" textLength="62" x="108" y="528.2559">Description</text><line style="stroke: #000000; stroke-width: 1.0;" x1="170" x2="271" y1="524.5986" y2="524.5986"/><!--class vertragsteile_v1--><rect fill="#F1F1F1" filter="url(#f136ryq0v49xp2)" height="298.1465" id="vertragsteile_v1" style="stroke: #000000; stroke-width: 1.5;" width="241" x="24.5" y="621.1992"/><ellipse cx="92.25" cy="637.1992" fill="#03A9F4" rx="11" ry="11" style="stroke: #000000; stroke-width: 1.0;"/><path d="M92.9487,637.8472 Q93.314,637.9219 93.5837,638.1917 Q93.8535,638.4614 94.2437,639.2417 L96.4849,643.6992 L93.7954,643.6992 L92.3013,640.5698 Q92.2349,640.437 92.127,640.2046 Q91.4712,638.8018 90.583,638.8018 L89.8027,638.8018 L89.8027,643.6992 L87.354,643.6992 L87.354,631.3062 L90.8901,631.3062 Q93.2808,631.3062 94.3225,632.1528 Q95.3643,632.9995 95.3643,634.9087 Q95.3643,636.187 94.7417,636.9424 Q94.1191,637.6978 92.9487,637.8472 Z M89.8027,633.3647 L89.8027,636.7432 L90.9565,636.7432 Q91.9609,636.7432 92.3967,636.3489 Q92.8325,635.9546 92.8325,635.0498 Q92.8325,634.145 92.4009,633.7549 Q91.9692,633.3647 90.9565,633.3647 Z "/><text fill="#000000" font-family="sans-serif" font-size="12" lengthAdjust="spacingAndGlyphs" textLength="89" x="116.75" y="641.7344">vertragsteile.v1</text><line style="stroke: #000000; stroke-width: 1.5;" x1="25.5" x2="264.5" y1="653.1992" y2="653.1992"/><ellipse cx="35.5" cy="682.1318" fill="none" rx="3" ry="3" style="stroke: #038048; stroke-width: 1.0;"/><text fill="#000000" font-family="sans-serif" font-size="11" lengthAdjust="spacingAndGlyphs" textLength="16" x="44.5" y="684.7891">list</text><ellipse cx="35.5" cy="695.0869" fill="none" rx="3" ry="3" style="stroke: #038048; stroke-width: 1.0;"/><text fill="#000000" font-family="sans-serif" font-size="11" lengthAdjust="spacingAndGlyphs" textLength="17" x="44.5" y="697.7441">get</text><ellipse cx="35.5" cy="708.042" fill="none" rx="3" ry="3" style="stroke: #038048; stroke-width: 1.0;"/><text fill="#000000" font-family="sans-serif" font-size="11" lengthAdjust="spacingAndGlyphs" textLength="33" x="44.5" y="710.6992">create</text><ellipse cx="35.5" cy="720.9971" fill="none" rx="3" ry="3" style="stroke: #038048; stroke-width: 1.0;"/><text fill="#000000" font-family="sans-serif" font-size="11" lengthAdjust="spacingAndGlyphs" textLength="37" x="44.5" y="723.6543">update</text><ellipse cx="35.5" cy="733.9521" fill="none" rx="3" ry="3" style="stroke: #038048; stroke-width: 1.0;"/><text fill="#000000" font-family="sans-serif" font-size="11" lengthAdjust="spacingAndGlyphs" textLength="32" x="44.5" y="736.6094">delete</text><text fill="#000000" font-family="sans-serif" font-size="11" lengthAdjust="spacingAndGlyphs" textLength="0" x="47.5" y="749.5645"/><line style="stroke: #000000; stroke-width: 1.0; stroke-dasharray: 1.0,2.0;" x1="25.5" x2="121.5" y1="667.6768" y2="667.6768"/><text fill="#000000" font-family="sans-serif" font-size="11" lengthAdjust="spacingAndGlyphs" textLength="47" x="121.5" y="671.334">methods</text><line style="stroke: #000000; stroke-width: 1.0; stroke-dasharray: 1.0,2.0;" x1="168.5" x2="264.5" y1="667.6768" y2="667.6768"/><rect fill="none" height="6" style="stroke: #C82930; stroke-width: 1.0;" width="6" x="32.5" y="773.8174"/><text fill="#000000" font-family="sans-serif" font-size="11" lengthAdjust="spacingAndGlyphs" textLength="108" x="44.5" y="779.4746">display_name string</text><ellipse cx="35.5" cy="789.7725" fill="none" rx="3" ry="3" style="stroke: #038048; stroke-width: 1.0;"/><text fill="#000000" font-family="sans-serif" font-size="11" lengthAdjust="spacingAndGlyphs" textLength="215" x="44.5" y="792.4297">fachlicheGueltigkeit FachlicheGueltigkeit</text><ellipse cx="35.5" cy="802.7275" fill="none" rx="3" ry="3" style="stroke: #038048; stroke-width: 1.0;"/><text fill="#000000" font-family="sans-serif" font-size="11" lengthAdjust="spacingAndGlyphs" textLength="90" x="44.5" y="805.3848">zustand Zustand</text><ellipse cx="35.5" cy="815.6826" fill="none" rx="3" ry="3" style="stroke: #038048; stroke-width: 1.0;"/><text fill="#000000" font-family="sans-serif" font-size="11" lengthAdjust="spacingAndGlyphs" textLength="109" x="44.5" y="818.3398">vertragsteilNr string</text><ellipse cx="35.5" cy="828.6377" fill="none" rx="3" ry="3" style="stroke: #038048; stroke-width: 1.0;"/><text fill="#000000" font-family="sans-serif" font-size="11" lengthAdjust="spacingAndGlyphs" textLength="104" x="44.5" y="831.2949">produktteilId string</text><ellipse cx="35.5" cy="841.5928" fill="none" rx="3" ry="3" style="stroke: #038048; stroke-width: 1.0;"/><text fill="#000000" font-family="sans-serif" font-size="11" lengthAdjust="spacingAndGlyphs" textLength="106" x="44.5" y="844.25">vertragsteilId string</text><ellipse cx="35.5" cy="854.5479" fill="none" rx="3" ry="3" style="stroke: #038048; stroke-width: 1.0;"/><text fill="#000000" font-family="sans-serif" font-size="11" lengthAdjust="spacingAndGlyphs" textLength="140" x="44.5" y="857.2051">zusatzAttribute []Property</text><text fill="#000000" font-family="sans-serif" font-size="11" lengthAdjust="spacingAndGlyphs" textLength="0" x="47.5" y="870.1602"/><line style="stroke: #000000; stroke-width: 1.0;" x1="25.5" x2="130.5" y1="762.3623" y2="762.3623"/><text fill="#000000" font-family="sans-serif" font-size="11" lengthAdjust="spacingAndGlyphs" textLength="29" x="130.5" y="766.0195">fields</text><line style="stroke: #000000; stroke-width: 1.0;" x1="159.5" x2="264.5" y1="762.3623" y2="762.3623"/><text fill="#000000" font-family="sans-serif" font-size="11" lengthAdjust="spacingAndGlyphs" textLength="76" x="30.5" y="900.0703">contract parts</text><text fill="#000000" font-family="sans-serif" font-size="11" lengthAdjust="spacingAndGlyphs" textLength="61" x="30.5" y="913.0254">entity {:cpt}</text><line style="stroke: #000000; stroke-width: 1.0;" x1="25.5" x2="114" y1="882.958" y2="882.958"/><text fill="#000000" font-family="sans-serif" font-size="11" lengthAdjust="spacingAndGlyphs" textLength="62" x="114" y="886.6152">Description</text><line style="stroke: #000000; stroke-width: 1.0;" x1="176" x2="264.5" y1="882.958" y2="882.958"/><!--class versicherteobjekte_v1--><rect fill="#F1F1F1" filter="url(#f136ryq0v49xp2)" height="298.1465" id="versicherteobjekte_v1" style="stroke: #000000; stroke-width: 1.5;" width="241" x="101.5" y="979.1992"/><ellipse cx="151.25" cy="995.1992" fill="#03A9F4" rx="11" ry="11" style="stroke: #000000; stroke-width: 1.0;"/><path d="M151.9487,995.8472 Q152.314,995.9219 152.5837,996.1917 Q152.8535,996.4614 153.2437,997.2417 L155.4849,1001.6992 L152.7954,1001.6992 L151.3013,998.5698 Q151.2349,998.437 151.127,998.2046 Q150.4712,996.8018 149.583,996.8018 L148.8027,996.8018 L148.8027,1001.6992 L146.354,1001.6992 L146.354,989.3062 L149.8901,989.3062 Q152.2808,989.3062 153.3225,990.1528 Q154.3643,990.9995 154.3643,992.9087 Q154.3643,994.187 153.7417,994.9424 Q153.1191,995.6978 151.9487,995.8472 Z M148.8027,991.3647 L148.8027,994.7432 L149.9565,994.7432 Q150.9609,994.7432 151.3967,994.3489 Q151.8325,993.9546 151.8325,993.0498 Q151.8325,992.145 151.4009,991.7549 Q150.9692,991.3647 149.9565,991.3647 Z "/><text fill="#000000" font-family="sans-serif" font-size="12" lengthAdjust="spacingAndGlyphs" textLength="125" x="175.75" y="999.7344">versicherteobjekte.v1</text><line style="stroke: #000000; stroke-width: 1.5;" x1="102.5" x2="341.5" y1="1011.1992" y2="1011.1992"/><ellipse cx="112.5" cy="1040.1318" fill="none" rx="3" ry="3" style="stroke: #038048; stroke-width: 1.0;"/><text fill="#000000" font-family="sans-serif" font-size="11" lengthAdjust="spacingAndGlyphs" textLength="16" x="121.5" y="1042.7891">list</text><ellipse cx="112.5" cy="1053.0869" fill="none" rx="3" ry="3" style="stroke: #038048; stroke-width: 1.0;"/><text fill="#000000" font-family="sans-serif" font-size="11" lengthAdjust="spacingAndGlyphs" textLength="17" x="121.5" y="1055.7441">get</text><ellipse cx="112.5" cy="1066.042" fill="none" rx="3" ry="3" style="stroke: #038048; stroke-width: 1.0;"/><text fill="#000000" font-family="sans-serif" font-size="11" lengthAdjust="spacingAndGlyphs" textLength="33" x="121.5" y="1068.6992">create</text><ellipse cx="112.5" cy="1078.9971" fill="none" rx="3" ry="3" style="stroke: #038048; stroke-width: 1.0;"/><text fill="#000000" font-family="sans-serif" font-size="11" lengthAdjust="spacingAndGlyphs" textLength="37" x="121.5" y="1081.6543">update</text><ellipse cx="112.5" cy="1091.9521" fill="none" rx="3" ry="3" style="stroke: #038048; stroke-width: 1.0;"/><text fill="#000000" font-family="sans-serif" font-size="11" lengthAdjust="spacingAndGlyphs" textLength="32" x="121.5" y="1094.6094">delete</text><text fill="#000000" font-family="sans-serif" font-size="11" lengthAdjust="spacingAndGlyphs" textLength="0" x="124.5" y="1107.5645"/><line style="stroke: #000000; stroke-width: 1.0; stroke-dasharray: 1.0,2.0;" x1="102.5" x2="198.5" y1="1025.6768" y2="1025.6768"/><text fill="#000000" font-family="sans-serif" font-size="11" lengthAdjust="spacingAndGlyphs" textLength="47" x="198.5" y="1029.334">methods</text><line style="stroke: #000000; stroke-width: 1.0; stroke-dasharray: 1.0,2.0;" x1="245.5" x2="341.5" y1="1025.6768" y2="1025.6768"/><rect fill="none" height="6" style="stroke: #C82930; stroke-width: 1.0;" width="6" x="109.5" y="1131.8174"/><text fill="#000000" font-family="sans-serif" font-size="11" lengthAdjust="spacingAndGlyphs" textLength="108" x="121.5" y="1137.4746">display_name string</text><ellipse cx="112.5" cy="1147.7725" fill="none" rx="3" ry="3" style="stroke: #038048; stroke-width: 1.0;"/><text fill="#000000" font-family="sans-serif" font-size="11" lengthAdjust="spacingAndGlyphs" textLength="215" x="121.5" y="1150.4297">fachlicheGueltigkeit FachlicheGueltigkeit</text><ellipse cx="112.5" cy="1160.7275" fill="none" rx="3" ry="3" style="stroke: #038048; stroke-width: 1.0;"/><text fill="#000000" font-family="sans-serif" font-size="11" lengthAdjust="spacingAndGlyphs" textLength="90" x="121.5" y="1163.3848">zustand Zustand</text><ellipse cx="112.5" cy="1173.6826" fill="none" rx="3" ry="3" style="stroke: #038048; stroke-width: 1.0;"/><text fill="#000000" font-family="sans-serif" font-size="11" lengthAdjust="spacingAndGlyphs" textLength="90" x="121.5" y="1176.3398">versObjNr string</text><ellipse cx="112.5" cy="1186.6377" fill="none" rx="3" ry="3" style="stroke: #038048; stroke-width: 1.0;"/><text fill="#000000" font-family="sans-serif" font-size="11" lengthAdjust="spacingAndGlyphs" textLength="97" x="121.5" y="1189.2949">versObjTyp string</text><ellipse cx="112.5" cy="1199.5928" fill="none" rx="3" ry="3" style="stroke: #038048; stroke-width: 1.0;"/><text fill="#000000" font-family="sans-serif" font-size="11" lengthAdjust="spacingAndGlyphs" textLength="87" x="121.5" y="1202.25">versObjId string</text><ellipse cx="112.5" cy="1212.5479" fill="none" rx="3" ry="3" style="stroke: #038048; stroke-width: 1.0;"/><text fill="#000000" font-family="sans-serif" font-size="11" lengthAdjust="spacingAndGlyphs" textLength="140" x="121.5" y="1215.2051">zusatzAttribute []Property</text><text fill="#000000" font-family="sans-serif" font-size="11" lengthAdjust="spacingAndGlyphs" textLength="0" x="124.5" y="1228.1602"/><line style="stroke: #000000; stroke-width: 1.0;" x1="102.5" x2="207.5" y1="1120.3623" y2="1120.3623"/><text fill="#000000" font-family="sans-serif" font-size="11" lengthAdjust="spacingAndGlyphs" textLength="29" x="207.5" y="1124.0195">fields</text><line style="stroke: #000000; stroke-width: 1.0;" x1="236.5" x2="341.5" y1="1120.3623" y2="1120.3623"/><text fill="#000000" font-family="sans-serif" font-size="11" lengthAdjust="spacingAndGlyphs" textLength="195" x="107.5" y="1258.0703">Repr채sentiert das versicherte Objekt</text><text fill="#000000" font-family="sans-serif" font-size="11" lengthAdjust="spacingAndGlyphs" textLength="63" x="107.5" y="1271.0254">entity {:vso}</text><line style="stroke: #000000; stroke-width: 1.0;" x1="102.5" x2="191" y1="1240.958" y2="1240.958"/><text fill="#000000" font-family="sans-serif" font-size="11" lengthAdjust="spacingAndGlyphs" textLength="62" x="191" y="1244.6152">Description</text><line style="stroke: #000000; stroke-width: 1.0;" x1="253" x2="341.5" y1="1240.958" y2="1240.958"/><!--class deckungsbuendel_v1--><rect fill="#F1F1F1" filter="url(#f136ryq0v49xp2)" height="298.1465" id="deckungsbuendel_v1" style="stroke: #000000; stroke-width: 1.5;" width="241" x="172.5" y="1337.1992"/><ellipse cx="224.75" cy="1353.1992" fill="#03A9F4" rx="11" ry="11" style="stroke: #000000; stroke-width: 1.0;"/><path d="M225.4487,1353.8472 Q225.814,1353.9219 226.0837,1354.1917 Q226.3535,1354.4614 226.7437,1355.2417 L228.9849,1359.6992 L226.2954,1359.6992 L224.8013,1356.5698 Q224.7349,1356.437 224.627,1356.2046 Q223.9712,1354.8018 223.083,1354.8018 L222.3027,1354.8018 L222.3027,1359.6992 L219.854,1359.6992 L219.854,1347.3062 L223.3901,1347.3062 Q225.7808,1347.3062 226.8225,1348.1528 Q227.8643,1348.9995 227.8643,1350.9087 Q227.8643,1352.187 227.2417,1352.9424 Q226.6191,1353.6978 225.4487,1353.8472 Z M222.3027,1349.3647 L222.3027,1352.7432 L223.4565,1352.7432 Q224.4609,1352.7432 224.8967,1352.3489 Q225.3325,1351.9546 225.3325,1351.0498 Q225.3325,1350.145 224.9009,1349.7549 Q224.4692,1349.3647 223.4565,1349.3647 Z "/><text fill="#000000" font-family="sans-serif" font-size="12" lengthAdjust="spacingAndGlyphs" textLength="120" x="249.25" y="1357.7344">deckungsbuendel.v1</text><line style="stroke: #000000; stroke-width: 1.5;" x1="173.5" x2="412.5" y1="1369.1992" y2="1369.1992"/><ellipse cx="183.5" cy="1398.1318" fill="none" rx="3" ry="3" style="stroke: #038048; stroke-width: 1.0;"/><text fill="#000000" font-family="sans-serif" font-size="11" lengthAdjust="spacingAndGlyphs" textLength="16" x="192.5" y="1400.7891">list</text><ellipse cx="183.5" cy="1411.0869" fill="none" rx="3" ry="3" style="stroke: #038048; stroke-width: 1.0;"/><text fill="#000000" font-family="sans-serif" font-size="11" lengthAdjust="spacingAndGlyphs" textLength="17" x="192.5" y="1413.7441">get</text><ellipse cx="183.5" cy="1424.042" fill="none" rx="3" ry="3" style="stroke: #038048; stroke-width: 1.0;"/><text fill="#000000" font-family="sans-serif" font-size="11" lengthAdjust="spacingAndGlyphs" textLength="33" x="192.5" y="1426.6992">create</text><ellipse cx="183.5" cy="1436.9971" fill="none" rx="3" ry="3" style="stroke: #038048; stroke-width: 1.0;"/><text fill="#000000" font-family="sans-serif" font-size="11" lengthAdjust="spacingAndGlyphs" textLength="37" x="192.5" y="1439.6543">update</text><ellipse cx="183.5" cy="1449.9521" fill="none" rx="3" ry="3" style="stroke: #038048; stroke-width: 1.0;"/><text fill="#000000" font-family="sans-serif" font-size="11" lengthAdjust="spacingAndGlyphs" textLength="32" x="192.5" y="1452.6094">delete</text><text fill="#000000" font-family="sans-serif" font-size="11" lengthAdjust="spacingAndGlyphs" textLength="0" x="195.5" y="1465.5645"/><line style="stroke: #000000; stroke-width: 1.0; stroke-dasharray: 1.0,2.0;" x1="173.5" x2="269.5" y1="1383.6768" y2="1383.6768"/><text fill="#000000" font-family="sans-serif" font-size="11" lengthAdjust="spacingAndGlyphs" textLength="47" x="269.5" y="1387.334">methods</text><line style="stroke: #000000; stroke-width: 1.0; stroke-dasharray: 1.0,2.0;" x1="316.5" x2="412.5" y1="1383.6768" y2="1383.6768"/><rect fill="none" height="6" style="stroke: #C82930; stroke-width: 1.0;" width="6" x="180.5" y="1489.8174"/><text fill="#000000" font-family="sans-serif" font-size="11" lengthAdjust="spacingAndGlyphs" textLength="108" x="192.5" y="1495.4746">display_name string</text><ellipse cx="183.5" cy="1505.7725" fill="none" rx="3" ry="3" style="stroke: #038048; stroke-width: 1.0;"/><text fill="#000000" font-family="sans-serif" font-size="11" lengthAdjust="spacingAndGlyphs" textLength="215" x="192.5" y="1508.4297">fachlicheGueltigkeit FachlicheGueltigkeit</text><ellipse cx="183.5" cy="1518.7275" fill="none" rx="3" ry="3" style="stroke: #038048; stroke-width: 1.0;"/><text fill="#000000" font-family="sans-serif" font-size="11" lengthAdjust="spacingAndGlyphs" textLength="90" x="192.5" y="1521.3848">zustand Zustand</text><ellipse cx="183.5" cy="1531.6826" fill="none" rx="3" ry="3" style="stroke: #038048; stroke-width: 1.0;"/><text fill="#000000" font-family="sans-serif" font-size="11" lengthAdjust="spacingAndGlyphs" textLength="143" x="192.5" y="1534.3398">deckungsbuendelNr string</text><ellipse cx="183.5" cy="1544.6377" fill="none" rx="3" ry="3" style="stroke: #038048; stroke-width: 1.0;"/><text fill="#000000" font-family="sans-serif" font-size="11" lengthAdjust="spacingAndGlyphs" textLength="140" x="192.5" y="1547.2949">deckungsbuendelId string</text><ellipse cx="183.5" cy="1557.5928" fill="none" rx="3" ry="3" style="stroke: #038048; stroke-width: 1.0;"/><text fill="#000000" font-family="sans-serif" font-size="11" lengthAdjust="spacingAndGlyphs" textLength="140" x="192.5" y="1560.25">zusatzAttribute []Property</text><text fill="#000000" font-family="sans-serif" font-size="11" lengthAdjust="spacingAndGlyphs" textLength="0" x="195.5" y="1573.2051"/><line style="stroke: #000000; stroke-width: 1.0;" x1="173.5" x2="278.5" y1="1478.3623" y2="1478.3623"/><text fill="#000000" font-family="sans-serif" font-size="11" lengthAdjust="spacingAndGlyphs" textLength="29" x="278.5" y="1482.0195">fields</text><line style="stroke: #000000; stroke-width: 1.0;" x1="307.5" x2="412.5" y1="1478.3623" y2="1478.3623"/><text fill="#000000" font-family="sans-serif" font-size="11" lengthAdjust="spacingAndGlyphs" textLength="165" x="178.5" y="1603.1152">Ein Deckungsb체ndel beinhaltet</text><text fill="#000000" font-family="sans-serif" font-size="11" lengthAdjust="spacingAndGlyphs" textLength="151" x="178.5" y="1616.0703">vorkonfigurierte Deckungen</text><text fill="#000000" font-family="sans-serif" font-size="11" lengthAdjust="spacingAndGlyphs" textLength="61" x="178.5" y="1629.0254">entity {:dbl}</text><line style="stroke: #000000; stroke-width: 1.0;" x1="173.5" x2="262" y1="1586.0029" y2="1586.0029"/><text fill="#000000" font-family="sans-serif" font-size="11" lengthAdjust="spacingAndGlyphs" textLength="62" x="262" y="1589.6602">Description</text><line style="stroke: #000000; stroke-width: 1.0;" x1="324" x2="412.5" y1="1586.0029" y2="1586.0029"/><!--class deckungen_v1--><rect fill="#F1F1F1" filter="url(#f136ryq0v49xp2)" height="440.6523" id="deckungen_v1" style="stroke: #000000; stroke-width: 1.5;" width="241" x="259.5" y="1695.1992"/><ellipse cx="331.25" cy="1711.1992" fill="#03A9F4" rx="11" ry="11" style="stroke: #000000; stroke-width: 1.0;"/><path d="M331.9487,1711.8472 Q332.314,1711.9219 332.5837,1712.1917 Q332.8535,1712.4614 333.2437,1713.2417 L335.4849,1717.6992 L332.7954,1717.6992 L331.3013,1714.5698 Q331.2349,1714.437 331.127,1714.2046 Q330.4712,1712.8018 329.583,1712.8018 L328.8027,1712.8018 L328.8027,1717.6992 L326.354,1717.6992 L326.354,1705.3062 L329.8901,1705.3062 Q332.2808,1705.3062 333.3225,1706.1528 Q334.3643,1706.9995 334.3643,1708.9087 Q334.3643,1710.187 333.7417,1710.9424 Q333.1191,1711.6978 331.9487,1711.8472 Z M328.8027,1707.3647 L328.8027,1710.7432 L329.9565,1710.7432 Q330.9609,1710.7432 331.3967,1710.3489 Q331.8325,1709.9546 331.8325,1709.0498 Q331.8325,1708.145 331.4009,1707.7549 Q330.9692,1707.3647 329.9565,1707.3647 Z "/><text fill="#000000" font-family="sans-serif" font-size="12" lengthAdjust="spacingAndGlyphs" textLength="81" x="355.75" y="1715.7344">deckungen.v1</text><line style="stroke: #000000; stroke-width: 1.5;" x1="260.5" x2="499.5" y1="1727.1992" y2="1727.1992"/><ellipse cx="270.5" cy="1756.1318" fill="none" rx="3" ry="3" style="stroke: #038048; stroke-width: 1.0;"/><text fill="#000000" font-family="sans-serif" font-size="11" lengthAdjust="spacingAndGlyphs" textLength="16" x="279.5" y="1758.7891">list</text><ellipse cx="270.5" cy="1769.0869" fill="none" rx="3" ry="3" style="stroke: #038048; stroke-width: 1.0;"/><text fill="#000000" font-family="sans-serif" font-size="11" lengthAdjust="spacingAndGlyphs" textLength="17" x="279.5" y="1771.7441">get</text><ellipse cx="270.5" cy="1782.042" fill="none" rx="3" ry="3" style="stroke: #038048; stroke-width: 1.0;"/><text fill="#000000" font-family="sans-serif" font-size="11" lengthAdjust="spacingAndGlyphs" textLength="33" x="279.5" y="1784.6992">create</text><ellipse cx="270.5" cy="1794.9971" fill="none" rx="3" ry="3" style="stroke: #038048; stroke-width: 1.0;"/><text fill="#000000" font-family="sans-serif" font-size="11" lengthAdjust="spacingAndGlyphs" textLength="37" x="279.5" y="1797.6543">update</text><ellipse cx="270.5" cy="1807.9521" fill="none" rx="3" ry="3" style="stroke: #038048; stroke-width: 1.0;"/><text fill="#000000" font-family="sans-serif" font-size="11" lengthAdjust="spacingAndGlyphs" textLength="32" x="279.5" y="1810.6094">delete</text><text fill="#000000" font-family="sans-serif" font-size="11" lengthAdjust="spacingAndGlyphs" textLength="0" x="282.5" y="1823.5645"/><line style="stroke: #000000; stroke-width: 1.0; stroke-dasharray: 1.0,2.0;" x1="260.5" x2="356.5" y1="1741.6768" y2="1741.6768"/><text fill="#000000" font-family="sans-serif" font-size="11" lengthAdjust="spacingAndGlyphs" textLength="47" x="356.5" y="1745.334">methods</text><line style="stroke: #000000; stroke-width: 1.0; stroke-dasharray: 1.0,2.0;" x1="403.5" x2="499.5" y1="1741.6768" y2="1741.6768"/><rect fill="none" height="6" style="stroke: #C82930; stroke-width: 1.0;" width="6" x="267.5" y="1847.8174"/><text fill="#000000" font-family="sans-serif" font-size="11" lengthAdjust="spacingAndGlyphs" textLength="108" x="279.5" y="1853.4746">display_name string</text><ellipse cx="270.5" cy="1863.7725" fill="none" rx="3" ry="3" style="stroke: #038048; stroke-width: 1.0;"/><text fill="#000000" font-family="sans-serif" font-size="11" lengthAdjust="spacingAndGlyphs" textLength="215" x="279.5" y="1866.4297">fachlicheGueltigkeit FachlicheGueltigkeit</text><ellipse cx="270.5" cy="1876.7275" fill="none" rx="3" ry="3" style="stroke: #038048; stroke-width: 1.0;"/><text fill="#000000" font-family="sans-serif" font-size="11" lengthAdjust="spacingAndGlyphs" textLength="90" x="279.5" y="1879.3848">zustand Zustand</text><ellipse cx="270.5" cy="1889.6826" fill="none" rx="3" ry="3" style="stroke: #038048; stroke-width: 1.0;"/><text fill="#000000" font-family="sans-serif" font-size="11" lengthAdjust="spacingAndGlyphs" textLength="140" x="279.5" y="1892.3398">zusatzAttribute []Property</text><ellipse cx="270.5" cy="1902.6377" fill="none" rx="3" ry="3" style="stroke: #038048; stroke-width: 1.0;"/><text fill="#000000" font-family="sans-serif" font-size="11" lengthAdjust="spacingAndGlyphs" textLength="84" x="279.5" y="1905.2949">sollPreis money</text><ellipse cx="270.5" cy="1915.5928" fill="none" rx="3" ry="3" style="stroke: #038048; stroke-width: 1.0;"/><text fill="#000000" font-family="sans-serif" font-size="11" lengthAdjust="spacingAndGlyphs" textLength="78" x="279.5" y="1918.25">istPreis money</text><ellipse cx="270.5" cy="1928.5479" fill="none" rx="3" ry="3" style="stroke: #038048; stroke-width: 1.0;"/><text fill="#000000" font-family="sans-serif" font-size="11" lengthAdjust="spacingAndGlyphs" textLength="82" x="279.5" y="1931.2051">selbstbehalt int</text><ellipse cx="270.5" cy="1941.5029" fill="none" rx="3" ry="3" style="stroke: #038048; stroke-width: 1.0;"/><text fill="#000000" font-family="sans-serif" font-size="11" lengthAdjust="spacingAndGlyphs" textLength="97" x="279.5" y="1944.1602">tarifversion string</text><ellipse cx="270.5" cy="1954.458" fill="none" rx="3" ry="3" style="stroke: #038048; stroke-width: 1.0;"/><text fill="#000000" font-family="sans-serif" font-size="11" lengthAdjust="spacingAndGlyphs" textLength="171" x="279.5" y="1957.1152">isTarifversionUebersteuert bool</text><ellipse cx="270.5" cy="1967.4131" fill="none" rx="3" ry="3" style="stroke: #038048; stroke-width: 1.0;"/><text fill="#000000" font-family="sans-serif" font-size="11" lengthAdjust="spacingAndGlyphs" textLength="94" x="279.5" y="1970.0703">deckungNr string</text><ellipse cx="270.5" cy="1980.3682" fill="none" rx="3" ry="3" style="stroke: #038048; stroke-width: 1.0;"/><text fill="#000000" font-family="sans-serif" font-size="11" lengthAdjust="spacingAndGlyphs" textLength="125" x="279.5" y="1983.0254">technischerBeginn date</text><ellipse cx="270.5" cy="1993.3232" fill="none" rx="3" ry="3" style="stroke: #038048; stroke-width: 1.0;"/><text fill="#000000" font-family="sans-serif" font-size="11" lengthAdjust="spacingAndGlyphs" textLength="115" x="279.5" y="1995.9805">fachlicherBeginn date</text><ellipse cx="270.5" cy="2006.2783" fill="none" rx="3" ry="3" style="stroke: #038048; stroke-width: 1.0;"/><text fill="#000000" font-family="sans-serif" font-size="11" lengthAdjust="spacingAndGlyphs" textLength="191" x="279.5" y="2008.9355">abweichenderFachlicherBeginn date</text><ellipse cx="270.5" cy="2019.2334" fill="none" rx="3" ry="3" style="stroke: #038048; stroke-width: 1.0;"/><text fill="#000000" font-family="sans-serif" font-size="11" lengthAdjust="spacingAndGlyphs" textLength="101" x="279.5" y="2021.8906">antragsdatum date</text><ellipse cx="270.5" cy="2032.1885" fill="none" rx="3" ry="3" style="stroke: #038048; stroke-width: 1.0;"/><text fill="#000000" font-family="sans-serif" font-size="11" lengthAdjust="spacingAndGlyphs" textLength="122" x="279.5" y="2034.8457">zeichnungsdatum date</text><ellipse cx="270.5" cy="2045.1436" fill="none" rx="3" ry="3" style="stroke: #038048; stroke-width: 1.0;"/><text fill="#000000" font-family="sans-serif" font-size="11" lengthAdjust="spacingAndGlyphs" textLength="122" x="279.5" y="2047.8008">abschlussgrund string</text><ellipse cx="270.5" cy="2058.0986" fill="none" rx="3" ry="3" style="stroke: #038048; stroke-width: 1.0;"/><text fill="#000000" font-family="sans-serif" font-size="11" lengthAdjust="spacingAndGlyphs" textLength="119" x="279.5" y="2060.7559">materiellerBeginn date</text><ellipse cx="270.5" cy="2071.0537" fill="none" rx="3" ry="3" style="stroke: #038048; stroke-width: 1.0;"/><text fill="#000000" font-family="sans-serif" font-size="11" lengthAdjust="spacingAndGlyphs" textLength="97" x="279.5" y="2073.7109">deckungsId string</text><text fill="#000000" font-family="sans-serif" font-size="11" lengthAdjust="spacingAndGlyphs" textLength="0" x="282.5" y="2086.666"/><line style="stroke: #000000; stroke-width: 1.0;" x1="260.5" x2="365.5" y1="1836.3623" y2="1836.3623"/><text fill="#000000" font-family="sans-serif" font-size="11" lengthAdjust="spacingAndGlyphs" textLength="29" x="365.5" y="1840.0195">fields</text><line style="stroke: #000000; stroke-width: 1.0;" x1="394.5" x2="499.5" y1="1836.3623" y2="1836.3623"/><text fill="#000000" font-family="sans-serif" font-size="11" lengthAdjust="spacingAndGlyphs" textLength="129" x="265.5" y="2116.5762">Deckungsinformationen</text><text fill="#000000" font-family="sans-serif" font-size="11" lengthAdjust="spacingAndGlyphs" textLength="63" x="265.5" y="2129.5313">entity {:dck}</text><line style="stroke: #000000; stroke-width: 1.0;" x1="260.5" x2="349" y1="2099.4639" y2="2099.4639"/><text fill="#000000" font-family="sans-serif" font-size="11" lengthAdjust="spacingAndGlyphs" textLength="62" x="349" y="2103.1211">Description</text><line style="stroke: #000000; stroke-width: 1.0;" x1="411" x2="499.5" y1="2099.4639" y2="2099.4639"/><!--link root_v1 to deckungsbuendel_v1--><path d="M365.5665,112.6673 C383.3004,277.3326 433.1476,829.8934 360,1277.1992 C356.787,1296.8473 352.0944,1317.1815 346.6602,1337.103 " fill="none" id="root_v1-deckungsbuendel_v1" style="stroke: #03A9F4; stroke-width: 1.0;"/><polygon fill="#FFFFFF" points="364.1016,99.2701,360.7775,105.6694,365.406,111.199,368.7301,104.7998,364.1016,99.2701" style="stroke: #03A9F4; stroke-width: 1.0;"/><!--link root_v1 to versicherteobjekte_v1--><path d="M358.9152,112.9408 C355.283,244.2827 340.313,616.1226 283,919.1992 C279.3127,938.6979 274.5723,958.989 269.3658,978.9274 " fill="none" id="root_v1-versicherteobjekte_v1" style="stroke: #03A9F4; stroke-width: 1.0;"/><polygon fill="#FFFFFF" points="359.2686,99.5565,355.1116,105.4488,358.9519,111.5523,363.1088,105.66,359.2686,99.5565" style="stroke: #03A9F4; stroke-width: 1.0;"/><!--link root_v1 to deckungen_v1--><path d="M388.5627,110.8843 C396.459,125.8225 404.1761,142.7598 409,159.1992 C485.8033,420.9399 467,497.4229 467,770.1992 C467,770.1992 467,770.1992 467,1128.1992 C467,1354.0999 459.2471,1411.0715 431,1635.1992 C428.5398,1654.7196 425.614,1674.9407 422.4266,1695.1745 " fill="none" id="root_v1-deckungen_v1" style="stroke: #03A9F4; stroke-width: 1.0;"/><polygon fill="#FFFFFF" points="382.2435,99.3805,381.6264,106.5652,388.021,109.8981,388.6381,102.7135,382.2435,99.3805" style="stroke: #03A9F4; stroke-width: 1.0;"/><!--link root_v1 to vertraege_v1--><path d="M325.809,109.9934 C310.7448,130.17 291.9825,155.2996 272.206,181.7875 " fill="none" id="root_v1-vertraege_v1" style="stroke: #03A9F4; stroke-width: 1.0;"/><polygon fill="#FFFFFF" points="333.7805,99.3167,326.9857,101.7314,326.6013,108.9323,333.3961,106.5176,333.7805,99.3167" style="stroke: #03A9F4; stroke-width: 1.0;"/><!--link vertraege_v1 to vertragsteile_v1--><path d="M141.9429,561.2956 C142.1712,576.8951 142.3999,592.5248 142.6238,607.8231 " fill="none" id="vertraege_v1-vertragsteile_v1" style="stroke: #03A9F4; stroke-width: 1.0;"/><polygon fill="#FFFFFF" points="142.8191,621.1727,146.7308,615.1148,142.6435,609.174,138.7317,615.2319,142.8191,621.1727" style="stroke: #03A9F4; stroke-width: 1.0;"/><!--link vertragsteile_v1 to versicherteobjekte_v1--><path d="M177.0974,919.4311 C180.4018,934.7947 183.771,950.4593 187.1039,965.955 " fill="none" id="vertragsteile_v1-versicherteobjekte_v1" style="stroke: #03A9F4; stroke-width: 1.0;"/><polygon fill="#FFFFFF" points="189.8927,978.9213,192.5416,972.2144,187.3694,967.1896,184.7205,973.8966,189.8927,978.9213" style="stroke: #03A9F4; stroke-width: 1.0;"/><!--link versicherteobjekte_v1 to deckungsbuendel_v1--><path d="M254.1677,1290.397 C257.2408,1305.8923 260.3475,1321.5571 263.3946,1336.9213 " fill="none" id="versicherteobjekte_v1-deckungsbuendel_v1" style="stroke: #03A9F4; stroke-width: 1.0;"/><polygon fill="#FFFFFF" points="251.5963,1277.4311,248.8399,1284.0946,253.9307,1289.2019,256.6871,1282.5383,251.5963,1277.4311" style="stroke: #03A9F4; stroke-width: 1.0;"/><!--link deckungsbuendel_v1 to deckungen_v1--><path d="M325.7822,1648.038 C328.8989,1663.4241 332.0938,1679.1967 335.2974,1695.0123 " fill="none" id="deckungsbuendel_v1-deckungen_v1" style="stroke: #03A9F4; stroke-width: 1.0;"/><polygon fill="#FFFFFF" points="323.1842,1635.2121,320.4551,1641.8868,325.5666,1646.9732,328.2958,1640.2985,323.1842,1635.2121" style="stroke: #03A9F4; stroke-width: 1.0;"/><!--
@startuml

title contract mgmt composite

skinparam class {
	BackgroundColor white
	ArrowColor #03a9f4
	BorderColor #f3f3f3
}
skinparam classBackgroundColor #F1F1F1
skinparam classBorderColor black

class " root.v1 " as root_v1 << (R, #B00020) >> {
    - -Description- -
    API entry point contract composite
}

class " vertraege.v1 " as vertraege_v1 << (R,#03a9f4) >> {
   .. methods ..
   + list
   + get
   + update
   + delete
   + :freigeben

   - - fields - -
   - display_name string
   + vertragId string
   + fachlicheGueltigkeit FachlicheGueltigkeit
   + zustand Zustand
   + versicherungsnehmer Versicherungsnehmer
   + hauptverfallTag int
   + hautpverfallMonat int
   + isHauptverfallUebersteuert bool
   + zahlweise string
   + zusatzAttribute []Property
   + vertragNr string
   + produktId string
   + ablaufDatum date
   + naechsterKuendigungstermin date
   + geschaeftsbereich string

   - -Description- -
    contract head information
    entity {:cnt}
}

class " vertragsteile.v1 " as vertragsteile_v1 << (R,#03a9f4) >>  {
   .. methods ..
     + list
     + get
     + create
     + update
     + delete

   - - fields - -
     - display_name string
     + fachlicheGueltigkeit FachlicheGueltigkeit
     + zustand Zustand
     + vertragsteilNr string
     + produktteilId string
     + vertragsteilId string
     + zusatzAttribute []Property

   - -Description- -
     contract parts
     entity {:cpt}
}

class " versicherteobjekte.v1 " as versicherteobjekte_v1 << (R,#03a9f4) >>  {
   .. methods ..
     + list
     + get
     + create
     + update
     + delete

   - - fields - -
     - display_name string
     + fachlicheGueltigkeit FachlicheGueltigkeit
     + zustand Zustand
     + versObjNr string
     + versObjTyp string
     + versObjId string
     + zusatzAttribute []Property

   - -Description- -
     Repr채sentiert das versicherte Objekt
     entity {:vso}
}

class " deckungsbuendel.v1 " as deckungsbuendel_v1 << (R,#03a9f4) >>  {
   .. methods ..
     + list
     + get
     + create
     + update
     + delete

   - - fields - -
     - display_name string
     + fachlicheGueltigkeit FachlicheGueltigkeit
     + zustand Zustand
     + deckungsbuendelNr string
     + deckungsbuendelId string
     + zusatzAttribute []Property

   - -Description- -
     Ein Deckungsb체ndel beinhaltet
     vorkonfigurierte Deckungen
     entity {:dbl}
}

class " deckungen.v1 " as deckungen_v1 << (R,#03a9f4) >>  {
   .. methods ..
     + list
     + get
     + create
     + update
     + delete

   - - fields - -
     - display_name string
     + fachlicheGueltigkeit FachlicheGueltigkeit
     + zustand Zustand
     + zusatzAttribute []Property
     + sollPreis money
     + istPreis money
     + selbstbehalt int
     + tarifversion string
     + isTarifversionUebersteuert bool
     + deckungNr string
     + technischerBeginn date
     + fachlicherBeginn date
     + abweichenderFachlicherBeginn date
     + antragsdatum date
     + zeichnungsdatum date
     + abschlussgrund string
     + materiellerBeginn date
     + deckungsId string

   - -Description- -
     Deckungsinformationen
     entity {:dck}
}



root_v1 o- - deckungsbuendel_v1
root_v1 o- - versicherteobjekte_v1
root_v1 o- - deckungen_v1
root_v1 o- - vertraege_v1

vertraege_v1 - -o vertragsteile_v1
vertragsteile_v1 - -o versicherteobjekte_v1
versicherteobjekte_v1 o- - deckungsbuendel_v1
deckungsbuendel_v1 o- - deckungen_v1

@enduml

PlantUML version 1.2019.01(Sat Feb 09 16:32:04 CET 2019)
(GPL source distribution)
Java Runtime: Java(TM) SE Runtime Environment
JVM: Java HotSpot(TM) 64-Bit Server VM
Java Version: 1.8.0_111-b14
Operating System: Mac OS X
OS Version: 10.14.3
Default Encoding: UTF-8
Language: en
Country: US
--></g></svg>